<?xml version="1.0" encoding="UTF-8" standalone="no"?>
<svg
   enable-background="new 0 0 20 20"
   height="48px"
   viewBox="0 0 20 20"
   width="48px"
   fill="#FFFFFF"
   version="1.1"
   id="svg6"
   sodipodi:docname="bulb_on.svg"
   inkscape:version="1.1.1 (3bf5ae0d25, 2021-09-20)"
   xmlns:inkscape="http://www.inkscape.org/namespaces/inkscape"
   xmlns:sodipodi="http://sodipodi.sourceforge.net/DTD/sodipodi-0.dtd"
   xmlns="http://www.w3.org/2000/svg"
   xmlns:svg="http://www.w3.org/2000/svg">
  <defs
     id="defs10" />
  <sodipodi:namedview
     id="namedview8"
     pagecolor="#ffffff"
     bordercolor="#666666"
     borderopacity="1.0"
     inkscape:pageshadow="2"
     inkscape:pageopacity="0.0"
     inkscape:pagecheckerboard="0"
     showgrid="false"
     inkscape:zoom="6.8958333"
     inkscape:cx="9.2084592"
     inkscape:cy="15.371601"
     inkscape:window-width="1440"
     inkscape:window-height="890"
     inkscape:window-x="-6"
     inkscape:window-y="-6"
     inkscape:window-maximized="1"
     inkscape:current-layer="svg6" />
  <rect
     fill="none"
     height="20"
     width="20"
     id="rect2" />
  <path
     style="fill:#e1e100;fill-opacity:1"
     d="M 15.5,5 16.28,3.28 18,2.5 16.28,1.72 15.5,0 14.72,1.72 13,2.5 14.72,3.28 Z"
     id="path1241" />
  <path
     style="fill:#e1e100;fill-opacity:1"
     d="M 18.5,8 18.97,6.97 20,6.5 18.97,6.03 18.5,5 18.03,6.03 17,6.5 18.03,6.97 Z"
     id="path1239" />
  <path
     style="fill:#c9c9c9;fill-opacity:1"
     d="M 7.5,18 C 8.33,18 9,17.33 9,16.5 H 6 C 6,17.33 6.67,18 7.5,18 Z"
     id="path1237" />
  <path
     style="fill:#f0f000;fill-opacity:1"
     d="m 13.5,8 c 0,2.09 -1.07,3.93 -2.69,5 H 4.19 C 2.57,11.93 1.5,10.09 1.5,8 c 0,-3.31 2.69,-6 6,-6 3.31,0 6,2.69 6,6 z"
     id="path1235" />
  <path
     style="fill:#c9c9c9;fill-opacity:1"
     d="M 4.5,14.75 C 4.5,14.34 4.84,14 5.25,14 h 4.5 c 0.41,0 0.75,0.34 0.75,0.75 0,0.41 -0.34,0.75 -0.75,0.75 H 5.25 C 4.84,15.5 4.5,15.16 4.5,14.75 Z"
     id="path4" />
</svg>
