<?xml version="1.0" encoding="UTF-8" standalone="no"?>
<svg
   enable-background="new 0 0 20 20"
   height="48px"
   viewBox="0 0 20 20"
   width="48px"
   fill="#FFFFFF"
   version="1.1"
   id="svg14"
   sodipodi:docname="experience_purple.svg"
   inkscape:version="1.1.1 (3bf5ae0d25, 2021-09-20)"
   xmlns:inkscape="http://www.inkscape.org/namespaces/inkscape"
   xmlns:sodipodi="http://sodipodi.sourceforge.net/DTD/sodipodi-0.dtd"
   xmlns="http://www.w3.org/2000/svg"
   xmlns:svg="http://www.w3.org/2000/svg">
  <defs
     id="defs18" />
  <sodipodi:namedview
     id="namedview16"
     pagecolor="#ffffff"
     bordercolor="#666666"
     borderopacity="1.0"
     inkscape:pageshadow="2"
     inkscape:pageopacity="0.0"
     inkscape:pagecheckerboard="0"
     showgrid="false"
     inkscape:zoom="13.791667"
     inkscape:cx="9.7522659"
     inkscape:cy="24"
     inkscape:window-width="1440"
     inkscape:window-height="890"
     inkscape:window-x="-6"
     inkscape:window-y="-6"
     inkscape:window-maximized="1"
     inkscape:current-layer="svg14" />
  <g
     id="g4">
    <rect
       fill="none"
       height="20"
       width="20"
       id="rect2" />
  </g>
  <g
     id="g12"
     style="fill:#6273ff;fill-opacity:1">
    <g
       id="g10"
       style="fill:#6273ff;fill-opacity:1">
      <path
         d="M16.5,5H13V3.5C13,2.67,12.33,2,11.5,2h-3C7.67,2,7,2.67,7,3.5V5H3.5C2.67,5,2,5.67,2,6.5v9C2,16.33,2.67,17,3.5,17h5.38 c-0.24-0.62-0.38-1.29-0.38-2c0-3.04,2.46-5.5,5.5-5.5c1.58,0,3,0.67,4,1.73V6.5C18,5.67,17.33,5,16.5,5z M11.5,5h-3V3.5h3V5z"
         id="path6"
         style="fill:#6273ff;fill-opacity:1" />
      <path
         d="M14,11c-2.21,0-4,1.79-4,4c0,2.21,1.79,4,4,4s4-1.79,4-4C18,12.79,16.21,11,14,11z M15.15,16.85l-1.65-1.65V13h1v1.79 l1.35,1.35L15.15,16.85z"
         id="path8"
         style="fill:#6273ff;fill-opacity:1" />
    </g>
  </g>
</svg>
