<?xml version="1.0" encoding="UTF-8" standalone="no"?>
<!-- Generator: Adobe Illustrator 19.2.0, SVG Export Plug-In . SVG Version: 6.00 Build 0)  -->

<svg
   version="1.1"
   id="Layer_1"
   x="0px"
   y="0px"
   viewBox="0 0 214.3 214.3"
   xml:space="preserve"
   sodipodi:docname="networkplus.svg"
   inkscape:version="1.1.1 (3bf5ae0d25, 2021-09-20)"
   width="214.3"
   height="214.3"
   xmlns:inkscape="http://www.inkscape.org/namespaces/inkscape"
   xmlns:sodipodi="http://sodipodi.sourceforge.net/DTD/sodipodi-0.dtd"
   xmlns="http://www.w3.org/2000/svg"
   xmlns:svg="http://www.w3.org/2000/svg"><defs
   id="defs59" /><sodipodi:namedview
   id="namedview57"
   pagecolor="#ffffff"
   bordercolor="#666666"
   borderopacity="1.0"
   inkscape:pageshadow="2"
   inkscape:pageopacity="0.0"
   inkscape:pagecheckerboard="0"
   showgrid="false"
   inkscape:zoom="2.2986111"
   inkscape:cx="-18.489426"
   inkscape:cy="107.02115"
   inkscape:window-width="1440"
   inkscape:window-height="890"
   inkscape:window-x="-6"
   inkscape:window-y="-6"
   inkscape:window-maximized="1"
   inkscape:current-layer="Layer_1"
   width="214.3px" />
  <style
   type="text/css"
   id="style2">
	.st0{fill:#FFFFFF;}
	.st1{fill:#6A747C;}
	.st2{fill:#E2231A;}
</style>
  <g
   id="g54"
   transform="translate(-37.6,-32.05)">
    <g
   id="g50">
      <g
   id="g48">
        <path
   class="st0"
   d="m 145.2,50 c -52.6,0 -95.4,42.8 -95.4,95.4 0,26.5 10.6,51.1 29.8,69.3 l 1,1 1.1,-1 c 2.8,-2.6 5.7,-4.9 8.7,-7.1 14.6,12.9 33.8,20.8 54.8,20.8 21,0 40.2,-7.9 54.8,-20.7 3,2.2 5.9,4.5 8.7,7.1 l 1.1,1 1,-1 c 19.3,-18.2 29.9,-42.9 29.9,-69.3 C 240.6,92.9 197.8,50 145.2,50 Z"
   id="path4" />
        <path
   class="st1"
   d="m 145.2,50 c -52.6,0 -95.4,42.8 -95.4,95.4 0,26.5 10.6,51.1 29.8,69.3 l 1,1 1.1,-1 c 2.8,-2.6 5.7,-4.9 8.7,-7.1 14.6,12.9 33.8,20.8 54.8,20.8 21,0 40.2,-7.9 54.8,-20.7 3,2.2 5.9,4.5 8.7,7.1 l 1.1,1 1,-1 c 19.3,-18.2 29.9,-42.9 29.9,-69.3 C 240.6,92.9 197.8,50 145.2,50 Z m 0,175.4 c -20,0 -38.2,-7.4 -52.2,-19.5 10.3,-6.9 21.9,-11.7 34.1,-14.1 v 13 h 9.9 v 9.9 h 20.7 c 3,0 5.4,-2.4 5.4,-5.4 v -17.6 c 12.3,2.4 23.9,7.2 34.3,14.1 -14.1,12.2 -32.3,19.6 -52.2,19.6 z m 7.9,-20.6 v -13.1 h 6.8 v 17.6 c 0,1.3 -1,2.3 -2.3,2.3 H 140 v -6.8 z M 140,201.7 v -10.1 h 10.1 v 10.1 z m 10.1,-13.1 H 137 v 13.1 h -6.8 v -17.3 c 0,-1.5 1.2,-2.7 2.7,-2.7 h 17.3 v 6.9 z m 49.6,15.2 c -11,-7.6 -23.5,-12.7 -36.7,-15.2 h -9.9 v -9.9 h -20.3 c -3.2,0 -5.8,2.6 -5.8,5.8 v 4.2 c -13.1,2.5 -25.5,7.6 -36.5,15.1 -15.6,-14.6 -25.3,-35.3 -25.3,-58.3 0,-44.1 35.8,-79.9 79.9,-79.9 44.1,0 79.9,35.8 79.9,79.9 0.1,22.9 -9.7,43.7 -25.3,58.3 z m 9.9,7.7 c -2.4,-2.1 -4.8,-4.1 -7.4,-6 15.9,-15.1 25.9,-36.5 25.9,-60.1 0,-45.8 -37.2,-83 -83,-83 -45.8,0 -83,37.2 -83,83 0,23.6 9.9,44.9 25.8,60.1 -2.5,1.9 -5,3.9 -7.4,6 C 62.6,194 52.7,170.6 52.7,145.4 52.7,94.5 94.1,53 145.1,53 c 51,0 92.4,41.4 92.4,92.4 0,25.2 -9.9,48.6 -27.9,66.1 z"
   id="path6" />
        <path
   class="st2"
   d="M 243.5,111.4 H 37.6 v 49.9 c 0,4.6 3.8,8.4 8.4,8.4 h 205.9 v -49.9 c -0.1,-4.7 -3.8,-8.4 -8.4,-8.4 z"
   id="path8" />
        <g
   id="g26">
          <path
   class="st0"
   d="m 83.4,126.1 h 4.5 v 25.8 H 84.1 L 69.8,133.5 v 18.4 h -4.5 v -25.8 h 4.2 L 83.4,144 Z"
   id="path10" />
          <path
   class="st0"
   d="m 102.2,148.7 c 2.2,0 3.7,-0.8 5.3,-2.3 l 2.6,2.3 c -1.8,2.2 -4.4,3.7 -8,3.7 -5.6,0 -10,-4.1 -10,-10.2 0,-5.6 4,-10.2 9.5,-10.2 6.2,0 9.3,4.9 9.3,10.5 0,0.4 0,0.8 -0.1,1.2 H 96.6 c 0.5,3.2 2.7,5 5.6,5 z m 4.3,-7.9 c -0.3,-2.9 -2,-5.1 -4.9,-5.1 -2.7,0 -4.7,2.1 -5.1,5.1 z"
   id="path12" />
          <path
   class="st0"
   d="m 119.4,145.8 c 0,1.7 0.9,2.4 2.4,2.4 1,0 1.9,-0.2 2.8,-0.7 v 3.7 c -1.1,0.6 -2.4,1 -4,1 -3.3,0 -5.6,-1.4 -5.6,-5.7 v -10.3 h -2.5 v -3.8 H 115 V 127 h 4.5 v 5.4 h 5.2 v 3.8 h -5.2 v 9.6 z"
   id="path14" />
          <path
   class="st0"
   d="m 147.6,145.8 4,-13.4 h 4.5 l -6.4,19.6 h -4 l -4.4,-13.3 -4.4,13.3 h -4 l -6.3,-19.6 h 4.6 l 3.9,13.4 4.3,-13.4 h 3.8 z"
   id="path16" />
          <path
   class="st0"
   d="m 167.4,152.4 c -5.9,0 -10.3,-4.5 -10.3,-10.1 0,-5.6 4.4,-10.2 10.4,-10.2 6,0 10.4,4.5 10.4,10.2 0,5.5 -4.5,10.1 -10.5,10.1 z m 0,-16.5 c -3.6,0 -5.9,2.8 -5.9,6.2 0,3.5 2.5,6.3 5.9,6.3 3.6,0 5.9,-2.8 5.9,-6.2 0.1,-3.4 -2.4,-6.3 -5.9,-6.3 z"
   id="path18" />
          <path
   class="st0"
   d="m 185.8,151.9 h -4.5 v -19.5 h 4.5 v 4.4 c 1.2,-2.9 3.5,-4.9 6.9,-4.8 v 4.7 h -0.3 c -3.9,0 -6.6,2.5 -6.6,7.7 z"
   id="path20" />
          <path
   class="st0"
   d="m 213.5,151.9 h -5.2 l -5.9,-8.4 -2.7,2.8 v 5.6 h -4.5 v -27 h 4.5 V 141 l 8.1,-8.6 h 5.4 l -7.8,7.9 z"
   id="path22" />
          <path
   class="st0"
   d="m 220.9,129.8 h 4.2 v 7.1 h 7.1 v 4.1 h -7.1 v 7.1 h -4.2 V 141 h -7.1 v -4.1 h 7.1 z"
   id="path24" />
        </g>
        <g
   id="g46">
          <g
   id="g44">
            <path
   class="st2"
   d="m 121.3,92.1 c -2.2,0 -4,1.5 -4,3.4 0,1.9 1.8,3.4 4,3.4 2.2,0 4,-1.5 4,-3.4 0,-1.9 -1.8,-3.4 -4,-3.4 m 0,9.1 c -3.5,0 -6.3,-2.5 -6.3,-5.7 0,-3.2 2.8,-5.7 6.3,-5.7 3.5,0 6.3,2.5 6.3,5.7 0,3.2 -2.8,5.7 -6.3,5.7"
   id="path28" />
            <path
   class="st2"
   d="m 143.8,101.2 c -1.3,0 -2.3,-1 -2.3,-2.3 v -4.7 c 0,-1.1 -1,-2 -2.2,-2 -1.2,0 -2.2,0.9 -2.2,2 v 7 c -1.3,0 -2.3,-1 -2.3,-2.3 v -4.8 c 0,-1.1 -1,-2 -2.2,-2 -1.2,0 -2.2,0.9 -2.2,2 v 4.7 c 0,1.3 -1,2.3 -2.3,2.3 v -7 c 0,-2.4 2,-4.3 4.5,-4.3 1.3,0 2.5,0.5 3.3,1.4 0.8,-0.9 2,-1.4 3.3,-1.4 2.5,0 4.5,1.9 4.5,4.3 z"
   id="path30" />
            <path
   class="st2"
   d="m 151.2,101.1 c -0.6,0 -1.2,0 -1.7,-0.2 -1.2,-0.3 -1.9,-1.6 -1.6,-2.8 0,-0.1 0.1,-0.3 0.1,-0.4 v 0 c 0.6,0.7 1.7,1.1 3.1,1.1 2.1,0 3.7,-1.5 3.7,-3.3 0,-1.9 -1.6,-3.5 -3.7,-3.5 -2,0 -4,1.1 -4,3.5 v 7.4 c 0,1.2 -1,2.2 -2.3,2.2 v -9.6 c 0,-3.3 2.6,-5.8 6.2,-5.8 1.6,0 3.1,0.6 4.2,1.6 1.1,1.1 1.8,2.5 1.8,4.1 0.2,3.3 -2.4,5.7 -5.8,5.7"
   id="path32" />
            <path
   class="st2"
   d="m 167.5,87.6 h -4.9 v 13.5 h -0.1 c -1.2,0 -2.2,-1 -2.2,-2.3 V 87.6 h -4.9 c -1.2,0 -2.2,-1 -2.2,-2.3 h 16.6 c -0.1,1.3 -1.1,2.3 -2.3,2.3"
   id="path34" />
            <path
   class="st2"
   d="m 182,87.7 -3.2,7.1 h 6.1 l -3.3,-7.2 z m 5,12 -1.2,-2.6 h -8.1 l -1.2,2.7 c -0.6,1.1 -2.1,1.4 -3.2,1.4 l 6.6,-14.5 c 0.4,-0.8 1,-1.3 1.8,-1.3 0.8,0 1.5,0.5 1.8,1.3 L 190,101 c -1.1,0.1 -2.5,-0.2 -3,-1.3"
   id="path36" />
            <path
   class="st2"
   d="m 112.4,89.6 c -1.2,-1.3 -3,-2.2 -5,-2.2 -3.5,0 -6.4,2.6 -6.4,5.7 0,3.2 2.9,5.8 6.4,5.8 1.7,0 3.3,-0.6 4.5,-1.7 0.8,-0.7 2.1,-0.6 2.9,0 -0.6,1 -1.5,1.8 -2.5,2.4 -1.5,0.9 -3.1,1.4 -4.9,1.4 -4.8,0 -8.7,-3.6 -8.7,-8 0,-4.4 3.9,-8 8.7,-8 3.4,0 6.5,1.9 7.9,4.7 -0.9,0.8 -2.1,0.7 -2.9,-0.1"
   id="path38" />
            <path
   class="st2"
   d="m 191.4,99.3 c 0,0 -0.1,0 -0.1,0 0,0 0.1,0.1 0.3,0.4 v 0 c -0.1,0.1 -0.2,0.1 -0.3,0 C 191,99.4 191,99.4 191,99.4 h -0.3 v -0.1 c 0,-0.1 0.1,-0.2 0.2,-0.2 h 0.1 c 0.1,0 0.2,0 0.2,0 0,0 0.1,0 0.1,-0.1 0,0 0,-0.1 -0.3,-0.1 h -0.4 v 0.8 c 0,0.1 -0.1,0.2 -0.2,0.2 h -0.1 v -1 c 0,-0.1 0.1,-0.2 0.2,-0.2 h 0.5 c 0.5,0 0.6,0.3 0.6,0.4 0,0 -0.1,0.1 -0.2,0.2 m -0.5,-0.9 c -0.5,0 -0.9,0.4 -0.9,0.8 0,0.5 0.4,0.8 0.9,0.8 0.5,0 1,-0.4 1,-0.8 0,-0.5 -0.4,-0.8 -1,-0.8 m 0,1.9 c -0.7,0 -1.2,-0.5 -1.2,-1.1 0,-0.6 0.5,-1.1 1.2,-1.1 0.7,0 1.2,0.5 1.2,1.1 0,0.6 -0.5,1.1 -1.2,1.1"
   id="path40" />
            <path
   class="st2"
   d="M 170.5,85.4 V 99 c 0,1.2 1,2.2 2.3,2.2 V 87.6 c -0.1,-1.2 -1.1,-2.2 -2.3,-2.2"
   id="path42" />
          </g>
        </g>
      </g>
    </g>
    <path
   class="st1"
   d="m 210,209.3 c 0,0 -0.1,0 -0.1,0 0,0 0.1,0.1 0.3,0.4 v 0 c -0.1,0.1 -0.2,0.1 -0.3,0 -0.3,-0.3 -0.3,-0.3 -0.3,-0.3 h -0.3 v -0.1 c 0,-0.1 0.1,-0.2 0.2,-0.2 h 0.1 c 0.1,0 0.2,0 0.2,0 0,0 0.1,0 0.1,-0.1 0,0 0,-0.1 -0.3,-0.1 h -0.4 v 0.8 c 0,0.1 -0.1,0.2 -0.2,0.2 h -0.1 v -1 c 0,-0.1 0.1,-0.2 0.2,-0.2 h 0.5 c 0.5,0 0.6,0.3 0.6,0.4 0,0 -0.1,0.1 -0.2,0.2 m -0.5,-1 c -0.5,0 -0.9,0.4 -0.9,0.8 0,0.5 0.4,0.8 0.9,0.8 0.5,0 1,-0.4 1,-0.8 0,-0.4 -0.4,-0.8 -1,-0.8 m 0,1.9 c -0.7,0 -1.2,-0.5 -1.2,-1.1 0,-0.6 0.5,-1.1 1.2,-1.1 0.7,0 1.2,0.5 1.2,1.1 0,0.6 -0.5,1.1 -1.2,1.1"
   id="path52" />
  </g>
</svg>
